<svg id="SvgjsSvg1042" width="256" height="256" xmlns="http://www.w3.org/2000/svg" version="1.1" xmlns:xlink="http://www.w3.org/1999/xlink" xmlns:svgjs="http://svgjs.com/svgjs"><defs id="SvgjsDefs1043"></defs><g id="SvgjsG1044"><svg xmlns="http://www.w3.org/2000/svg" viewBox="0 0 65 65" width="256" height="256"><path fill="#116fce" d="m38.224 58.733-.011.013.174 4.004H50.64l-1.658-9.012 6.815-7.438c.06-.064.101-.14.152-.206.363-.307.637-.721.752-1.217l1.826-7.767a2.27 2.27 0 0 0-.195-1.552l-1.392-5.702a1.835 1.835 0 0 0-2.222-1.349 1.842 1.842 0 0 0-1.35 2.222l1.233 5.044-.737 2.513-8.211 8.961c.812-2.485 4.157-6.433 3.196-7.312-1.616-1.483-1.928-1.923-3.842.166l-6.405 6.988c-.015.019-.026.04-.042.06a2.695 2.695 0 0 0-.766 2.004l.412 9.47c.004.038.013.073.018.11z" class="color116FCE svgShape"></path><path fill="#008cff" d="m58.332 35.56-1.392-5.702a1.835 1.835 0 0 0-2.222-1.349 1.842 1.842 0 0 0-1.35 2.222l1.233 5.044-.737 2.513-8.211 8.961c.812-2.485 4.157-6.433 3.196-7.312-1.616-1.483-1.928-1.923-3.842.166l-6.405 6.988c-.015.019-.026.04-.042.06a2.695 2.695 0 0 0-.766 2.004l.077 1.773 14.255-.622 3.669-4.004c.06-.064.101-.14.152-.206.363-.307.637-.721.752-1.217l1.826-7.767a2.257 2.257 0 0 0-.193-1.552z" class="color008CFF svgShape"></path><path fill="#116fce" d="m26.777 58.733.01.013-.175 4.004H14.361l1.657-9.012L9.203 46.3c-.06-.064-.101-.14-.153-.206a2.268 2.268 0 0 1-.752-1.217L6.474 37.11a2.26 2.26 0 0 1 .194-1.552l1.392-5.702a1.834 1.834 0 0 1 2.221-1.349 1.84 1.84 0 0 1 1.35 2.222l-1.232 5.044.736 2.513 8.212 8.961c-.812-2.485-4.158-6.433-3.196-7.312 1.617-1.483 1.928-1.923 3.842.166l6.404 6.988c.016.019.027.04.042.06.503.518.802 1.228.766 2.004l-.411 9.47c-.004.038-.014.073-.017.11z" class="color116FCE svgShape"></path><path fill="#008cff" d="m6.668 35.56 1.392-5.702a1.834 1.834 0 0 1 2.221-1.349 1.84 1.84 0 0 1 1.35 2.222l-1.232 5.044.736 2.513 8.212 8.961c-.812-2.485-4.158-6.433-3.196-7.312 1.617-1.483 1.928-1.923 3.842.166l6.404 6.988c.016.019.027.04.042.06.503.518.802 1.228.766 2.004l-.076 1.773-14.256-.622-3.668-4.004c-.06-.064-.101-.14-.153-.206a2.268 2.268 0 0 1-.752-1.217l-1.824-7.767a2.246 2.246 0 0 1 .192-1.552z" class="color008CFF svgShape"></path><path fill="#0092ff" d="M35.791 33.647h-6.582c-.229.51-.553 1.09-.936 1.656a.691.691 0 0 0 .373 1.049c1.18.357 2.512.545 3.854.545 1.34 0 2.674-.188 3.854-.545a.693.693 0 0 0 .373-1.049 11.317 11.317 0 0 1-.936-1.656z" class="color0092FF svgShape"></path><ellipse cx="32.5" cy="23.591" fill="#093568" rx="12.703" ry="5.318" class="color093568 svgShape"></ellipse><path fill="#041d35" d="M45.203 23.591c0 2.938-5.688 5.318-12.703 5.318s-12.703-2.381-12.703-5.318" class="color041D35 svgShape"></path><path fill="#093568" d="M27.887 22.392c0 1.951-1.58 3.533-3.531 3.533s-15.95-1.582-15.95-3.533c0-1.949 13.998-3.531 15.949-3.531s3.532 1.581 3.532 3.531z" class="color093568 svgShape"></path><path fill="#074584" d="M24.355 18.86a3.531 3.531 0 0 1 3.531 3.531" class="color074584 svgShape"></path><path fill="#041d35" d="M27.887 22.392c0 1.951 2.273 6.102.322 6.102s-19.803-4.15-19.803-6.102" class="color041D35 svgShape"></path><path fill="#041d35" d="M11.927 23.222a2.034 2.034 0 0 1-2.034 2.035 2.03 2.03 0 0 1-2.031-2.035v-1.82a2.034 2.034 0 0 1 4.065 0v1.82z" class="color041D35 svgShape"></path><path fill="#093568" d="M11.927 21.216a2.034 2.034 0 0 1-2.034 2.033 2.03 2.03 0 0 1-2.031-2.033v-1.82a2.031 2.031 0 1 1 4.065 0v1.82z" class="color093568 svgShape"></path><path fill="#041d35" d="M7.924 19.396a2.027 2.027 0 0 0 1.969 1.553c.957 0 1.754-.662 1.97-1.553a2.03 2.03 0 0 0-1.97-1.553 2.03 2.03 0 0 0-1.969 1.553z" class="color041D35 svgShape"></path><ellipse cx="9.892" cy="17.776" fill="#00b1ff" rx="9.392" ry="1.486" class="color00B1FF svgShape"></ellipse><ellipse cx="9.893" cy="17.776" fill="#0092ff" rx="5.218" ry="1.486" class="color0092FF svgShape"></ellipse><path fill="#00cfff" d="M19.225 17.776c0 .145-.115.26-.261.26H.82a.258.258 0 0 1-.258-.26.26.26 0 0 1 .258-.262h18.144a.262.262 0 0 1 .261.262z" class="color00CFFF svgShape"></path><path fill="#041d35" d="M11.961 15.972c0 .596.799 1.082.198 1.082H7.625c-.598 0 .2-.486.2-1.082 0-.602.487-1.086 1.084-1.086h1.966c.598 0 1.086.484 1.086 1.086z" class="color041D35 svgShape"></path><path fill="#093568" d="M37.113 22.392a3.532 3.532 0 0 0 3.533 3.533c1.948 0 15.946-1.582 15.946-3.533 0-1.949-13.998-3.531-15.946-3.531a3.53 3.53 0 0 0-3.533 3.531z" class="color093568 svgShape"></path><path fill="#074584" d="M40.646 18.86a3.532 3.532 0 0 0-3.533 3.531" class="color074584 svgShape"></path><path fill="#041d35" d="M37.113 22.392c0 1.951-2.273 6.102-.322 6.102s19.802-4.15 19.802-6.102" class="color041D35 svgShape"></path><path fill="#041d35" d="M53.072 23.222c0 1.125.912 2.035 2.035 2.035a2.03 2.03 0 0 0 2.031-2.035v-1.82a2.03 2.03 0 0 0-2.031-2.033c-1.123 0-2.035.91-2.035 2.033v1.82z" class="color041D35 svgShape"></path><path fill="#093568" d="M53.072 21.216c0 1.123.912 2.033 2.035 2.033a2.03 2.03 0 0 0 2.031-2.033v-1.82a2.032 2.032 0 0 0-2.031-2.035 2.036 2.036 0 0 0-2.035 2.035v1.82z" class="color093568 svgShape"></path><path fill="#041d35" d="M57.076 19.396a2.027 2.027 0 0 1-1.969 1.553 2.031 2.031 0 0 1-1.971-1.553 2.034 2.034 0 0 1 1.971-1.553c.956 0 1.754.664 1.969 1.553z" class="color041D35 svgShape"></path><ellipse cx="55.107" cy="17.776" fill="#00b1ff" rx="9.393" ry="1.486" class="color00B1FF svgShape"></ellipse><ellipse cx="55.107" cy="17.776" fill="#0092ff" rx="5.218" ry="1.486" class="color0092FF svgShape"></ellipse><path fill="#00cfff" d="M45.775 17.776c0 .145.115.26.26.26H64.18a.261.261 0 0 0 0-.522H46.035a.262.262 0 0 0-.26.262z" class="color00CFFF svgShape"></path><path fill="#041d35" d="M53.039 15.972c0 .596-.799 1.082-.199 1.082h4.535c.598 0-.2-.486-.2-1.082 0-.602-.485-1.086-1.085-1.086h-1.965c-.598 0-1.086.484-1.086 1.086z" class="color041D35 svgShape"></path><path fill="#081e34" d="M38.51 24.106h-1.938c-.294 0-.574.131-.764.355-.271.32-1.511.795-3.309.795-1.799 0-3.036-.475-3.307-.795a1.004 1.004 0 0 0-.765-.355H26.49a1 1 0 0 0-1 1v2.049c0 .254.098.5.271.686.382.404.91.572 1.422.734.978.309 1.084.436 1.084.799 0 .814-.772 2.533-1.881 4.178a1.001 1.001 0 0 0 .541 1.516c1.706.516 3.633.789 5.572.789s3.867-.273 5.572-.789a1 1 0 0 0 .541-1.516c-1.107-1.645-1.879-3.363-1.879-4.178 0-.363.105-.49 1.081-.799.512-.162 1.04-.33 1.423-.734.174-.186.271-.432.271-.686v-2.049a.997.997 0 0 0-.998-1z" class="color081E34 svgShape"></path><path fill="#0092ff" d="M34.541 20.001a.188.188 0 0 1-.188.188h-3.707a.188.188 0 1 1 0-.376h3.707c.104 0 .188.084.188.188zM34.541 21.126a.188.188 0 0 1-.188.188h-3.707a.188.188 0 1 1 0-.376h3.707c.104 0 .188.084.188.188zM34.541 22.251a.188.188 0 0 1-.188.188h-3.707a.188.188 0 1 1 0-.376h3.707c.104 0 .188.084.188.188z" class="color0092FF svgShape"></path><path fill="#00b1ff" d="M33.25 7.5a.75.75 0 01-1.5 0V3a.75.75 0 011.5 0v4.5zM23.42 10.311a.75.75 0 11-1.061 1.061L19.177 8.19a.75.75 0 111.061-1.061l3.182 3.182zM27.838 8.569a.75.75 0 01-.479.948.753.753 0 01-.947-.48L25.01 4.763a.75.75 0 011.426-.468l1.402 4.274zM41.58 10.311a.75.75 0 101.061 1.061l3.182-3.182a.75.75 0 10-1.061-1.061l-3.182 3.182zM37.162 8.569a.75.75 0 00.479.948.753.753 0 00.947-.48l1.402-4.274a.75.75 0 00-1.426-.468l-1.402 4.274z" class="color00B1FF svgShape"></path></svg></g></svg>