<svg width="20" height="25" viewBox="0 0 20 25" fill="none" xmlns="http://www.w3.org/2000/svg">
<mask id="mask0_15_143" style="mask-type:luminance" maskUnits="userSpaceOnUse" x="12" y="0" width="8" height="8">
<path d="M12.418 0H19.9998V7.85121H16.267V3.86578H12.418V0Z" fill="white"/>
</mask>
<g mask="url(#mask0_15_143)">
<path d="M19.9998 0H12.418V7.85121H19.9998V0Z" fill="url(#paint0_linear_15_143)"/>
</g>
<mask id="mask1_15_143" style="mask-type:luminance" maskUnits="userSpaceOnUse" x="6" y="6" width="8" height="9">
<path d="M12.6814 13.1318C12.1514 13.6806 11.4761 14.0544 10.7409 14.2058C10.0057 14.3573 9.24373 14.2796 8.55123 13.9825C7.85872 13.6855 7.26682 13.1825 6.85038 12.5371C6.43394 11.8917 6.21167 11.133 6.21167 10.3568C6.21167 9.5806 6.43394 8.82183 6.85038 8.17645C7.26682 7.53107 7.85872 7.02806 8.55123 6.73103C9.24373 6.434 10.0057 6.35629 10.7409 6.50773C11.4761 6.65917 12.1514 7.03295 12.6814 7.58181C13.3921 8.31779 13.7913 9.31598 13.7913 10.3568C13.7913 11.3976 13.3921 12.3958 12.6814 13.1318Z" fill="white"/>
</mask>
<g mask="url(#mask1_15_143)">
<path d="M14.1592 6.0481H5.84009V14.6628H14.1592V6.0481Z" fill="url(#paint1_linear_15_143)"/>
</g>
<mask id="mask2_15_143" style="mask-type:luminance" maskUnits="userSpaceOnUse" x="0" y="0" width="20" height="25">
<path d="M14.4315 14.9442C13.7028 15.699 12.8056 16.256 11.8194 16.5659C10.8332 16.8758 9.78837 16.9291 8.77751 16.721C7.76666 16.5129 6.82097 16.0498 6.0242 15.3729C5.22743 14.6959 4.60418 13.8259 4.20965 12.84C3.81513 11.854 3.6615 10.7825 3.76239 9.72039C3.86327 8.65826 4.21555 7.63829 4.78802 6.75083C5.36049 5.86336 6.13549 5.13578 7.04435 4.63255C7.95322 4.12931 8.96791 3.86595 9.99854 3.86578V6.7971e-06C8.68532 -0.0015537 7.38475 0.265598 6.17154 0.786113C4.95832 1.30663 3.85639 2.07025 2.92903 3.0331C-0.976345 7.07685 -0.976345 13.6337 2.92903 17.6778L10 25L17.0713 17.6778C18.0012 16.7172 18.7386 15.5758 19.2412 14.3191C19.7438 13.0625 20.0017 11.7154 20 10.3553H16.2672C16.2691 11.208 16.1078 12.0527 15.7927 12.8406C15.4777 13.6285 15.015 14.344 14.4315 14.9457" fill="white"/>
</mask>
<g mask="url(#mask2_15_143)">
<path d="M20.0001 0H-0.976242V25H20.0001V0Z" fill="url(#paint2_linear_15_143)"/>
</g>
<defs>
<linearGradient id="paint0_linear_15_143" x1="0.141532" y1="19.2687" x2="31.2518" y2="-8.4357" gradientUnits="userSpaceOnUse">
<stop stop-color="#B53E18"/>
<stop offset="1" stop-color="#FF794E"/>
</linearGradient>
<linearGradient id="paint1_linear_15_143" x1="0.38244" y1="19.5392" x2="31.4927" y2="-8.1652" gradientUnits="userSpaceOnUse">
<stop stop-color="#B53E18"/>
<stop offset="1" stop-color="#FF794E"/>
</linearGradient>
<linearGradient id="paint2_linear_15_143" x1="-1.76764" y1="24.0247" x2="26.2416" y2="-2.66283" gradientUnits="userSpaceOnUse">
<stop stop-color="#003F7F"/>
<stop offset="1" stop-color="#338FEB"/>
</linearGradient>
</defs>
</svg>
